<?xml version="1.0" encoding="UTF-8"?>
<svg width="111px" height="40px" viewBox="0 0 111 40" version="1.1" xmlns="http://www.w3.org/2000/svg" xmlns:xlink="http://www.w3.org/1999/xlink">
    <!-- Generator: Sketch 52.6 (67491) - http://www.bohemiancoding.com/sketch -->
    <title>logo</title>
    <desc>Created with Sketch.</desc>
    <g id="Design" stroke="none" stroke-width="1" fill="none" fill-rule="evenodd">
        <g id="Платформы" transform="translate(-135.000000, -40.000000)" fill="#F01A4E">
            <path d="M163.797318,60.0287452 C163.797318,56.5721738 162.710129,53.0759683 160.535404,50.9587641 C158.359984,48.8412097 155.022397,47.7827826 150.521602,47.7827826 L143.997773,47.7827826 C143.916547,47.7827826 143.850593,47.8493063 143.850593,47.9312355 L143.850593,70.0174537 C143.850593,71.1693641 144.77637,72.1031467 145.918404,72.1031467 L151.202657,72.1031467 C155.249069,72.1031467 158.359984,71.0730798 160.535404,69.0129459 C162.710129,66.9528119 163.797318,63.4853166 163.797318,60.0287452 Z M172.704839,59.7997637 C172.704839,65.1831907 170.860922,70.9396823 167.173088,74.5638234 C163.485601,78.1886647 157.859086,79.99986 150.29493,79.99986 L137.062257,79.99986 C135.923347,79.99986 135,79.0685282 135,77.9197689 L135,40.148663 C135,40.0667338 135.065953,40.0002101 135.14718,40.0002101 L150.748967,40.0002101 C157.82125,40.0002101 163.248864,41.7455819 167.031462,45.2359753 C170.813019,48.7267189 172.704839,54.4163366 172.704839,59.7997637 Z M196.803165,70.2585553 C196.777131,70.1965832 196.713955,70.1591199 196.647654,70.1664725 L181.290374,71.9779421 C181.246984,72.0108539 181.211924,72.0367631 181.168187,72.0696748 L177.822963,79.9079172 C177.799359,79.963587 177.744861,80 177.684461,80 L171.492135,80 C170.014086,80 169.019926,78.4738063 169.605522,77.1055188 L185.113239,40.0920828 C185.137538,40.0360628 185.191689,40 185.251741,40 L192.361513,40 C193.18593,40 193.93155,40.4943761 194.258192,41.257648 L210.415029,79.7878244 C210.458072,79.8879601 210.384829,80 210.276527,80 L202.35657,80 C201.586652,80 200.89067,79.5378354 200.58659,78.8249814 L196.803165,70.2585553 Z M184.924057,63.2738413 C184.87789,63.38238 184.965712,63.500372 185.081651,63.4853166 L193.421626,62.3173005 C193.521598,62.3043459 193.580956,62.1986083 193.540689,62.1054751 L189.602927,52.2228544 C189.550511,52.101011 189.378686,52.1013611 189.326617,52.2232045 L184.924057,63.2738413 Z M236.291764,65.6234233 C236.199678,65.664765 236.16194,65.7736269 236.219909,65.8562563 L245.970592,79.7478052 C246.044876,79.8535428 245.969898,79.999895 245.841115,79.999895 L236.444498,79.999895 C235.698878,79.999895 235.001161,79.6315637 234.575588,79.0142938 L226.508451,67.3075233 C226.478599,67.264458 226.430001,67.2388989 226.37828,67.2388989 L220.492464,67.2388989 C220.404642,67.2388989 220.333829,67.3103243 220.333829,67.3989059 L220.333829,79.8402381 C220.333829,79.9284695 220.263015,79.999895 220.17554,79.999895 L213.559378,79.999895 C212.412483,79.999895 211.483235,79.0622609 211.483235,77.9057989 L211.483235,40.159902 C211.483235,40.0716705 211.554048,40.0002451 211.641871,40.0002451 L226.517476,40.0002451 C232.682032,40.0002451 235.733412,40.3712366 238.791448,42.8036059 C241.849483,45.2359753 243.651464,49.7217632 243.651464,53.2762747 C243.651464,56.8307861 242.731253,62.7324273 236.291764,65.6234233 Z M234.64399,53.5908617 C234.64399,47.9215586 229.808202,47.6679767 226.971513,47.6679767 L220.492464,47.6679767 C220.404642,47.6679767 220.333829,47.7397523 220.333829,47.8279837 L220.333829,57.4157994 C220.333829,58.5743621 221.264812,59.5137468 222.413789,59.5137468 L226.801423,59.5137468 C229.826599,59.5137468 234.64399,59.2601649 234.64399,53.5908617 Z" id="logo"></path>
        </g>
    </g>
</svg>